# xmcd CD database file
#
# Track frame offsets:
#	150
#	18906
#	28605
#	44338
#	54565
#	67670
#	91745
#	103893
#	118125
#	136209
#	152223
#	168696
#	181884
#	192435
#	205524
#	219097
#	226781
#	240107
#	251088
#	268873
#	277984
#	287963
#	304209
#	315810
#	327397
#
# Disc length: 4505 seconds
#
# Revision: 0
# Processed by: cddbd v1.5.2PL0 Copyright (c) Steve Scherf et al.
# Submitted via: CDex 1.70beta2
#
DISCID=57119719
DTITLE=Mix - Heroes Collection ountry Love CD 1
DYEAR=1900
DGENRE=Country
TTITLE0=I Wanna Be With You Yonight
TTITLE1=What A Man My Man Is
TTITLE2=Kiss You All Over
TTITLE3=Three Cigarettes In An Ashtray
TTITLE4=Following The Feeling
TTITLE5=The Bluest Eyes In Texas (Live)
TTITLE6=Dream Baby
TTITLE7=Darlene
TTITLE8=Secret Love (Live)
TTITLE9=Only When I Love
TTITLE10=Hang On To Your Heart
TTITLE11=Somebody Special
TTITLE12=Down To My Last Broken Heart
TTITLE13=(I Never Promised You A) Rose Garden
TTITLE14=If Your Heart Ain't Busy Tonight (Live)
TTITLE15=Blue Blue Day
TTITLE16=True Love Ways
TTITLE17=There Goes My Everything
TTITLE18=Break It To Me Gently
TTITLE19=Today I Started Loving You Again (Live)
TTITLE20=Broken Promise
TTITLE21=Blues In My Heart
TTITLE22=Crying
TTITLE23=You're The Nearest Thing To Heaven
TTITLE24=I'm So Lonosome I Could Cry
EXTD=
EXTT0=
EXTT1=
EXTT2=
EXTT3=
EXTT4=
EXTT5=
EXTT6=
EXTT7=
EXTT8=
EXTT9=
EXTT10=
EXTT11=
EXTT12=
EXTT13=
EXTT14=
EXTT15=
EXTT16=
EXTT17=
EXTT18=
EXTT19=
EXTT20=
EXTT21=
EXTT22=
EXTT23=
EXTT24=
PLAYORDER=
